{"title":"Iron Man (2008) Hindi 720p.x264 BRrip@Mastitorrents","uid":5673073,"size":677020376,"categoryP":"other","categoryS":"other","magnet":"?xt=urn:btih:290804982b430f12cccc0cb1a45a652579310cc7&amp;dn=Iron+Man+%282008%29+Hindi+720p.x264+BRrip%40Mastitorrents&amp;tr=udp%3A%2F%2Ftracker.openbittorrent.com%3A80&amp;tr=udp%3A%2F%2Fopen.demonii.com%3A1337&amp;tr=udp%3A%2F%2Ftracker.coppersurfer.tk%3A6969&amp;tr=udp%3A%2F%2Fexodus.desync.com%3A6969","seeders":0,"leechers":1,"uploader":"amanrulz","files":3,"time":1278427145,"description":"mastitorrents.com &lt;a href=&quot;\nhttp://mastitorrents.com/forums/torrents.php&quot; rel=&quot;nofollow&quot; target=&quot;_NEW&quot;&gt;\nhttp://mastitorrents.com/forums/torrents.php&lt;/a&gt;\n\nFormat                           : Matroska\nFile size                        : 636 MiB\nDuration                         : 2h 6mn\nOverall bit rate                 : 705 Kbps\nWriting application              : AVI-Mux GUI 1.17.7, Aug  8 2006  20:59:17\nWriting library                  : matroska muxer by Alexander Noe, build date Aug  8 2006\n\nVideo\nID                               : 1\nFormat                           : AVC\nFormat/Info                      : Advanced Video Codec\nFormat profile                   : &lt;a class=&quot;__cf_email__&quot; href=&quot;/cdn-cgi/l/email-protection&quot; data-cfemail=&quot;a8e0c1cfc0e8e49b8699&quot;&gt;[email&amp;#160;protected]&lt;/a&gt;&lt;script cf-hash='f9e31' type=&quot;text/javascript&quot;&gt;\n/* &lt;![CDATA[ */!function(){try{var t=&quot;currentScript&quot;in document?document.currentScript:function(){for(var t=document.getElementsByTagName(&quot;script&quot;),e=t.length;e--;)if(t[e].getAttribute(&quot;cf-hash&quot;))return t[e]}();if(t&amp;&amp;t.previousSibling){var e,r,n,i,c=t.previousSibling,a=c.getAttribute(&quot;data-cfemail&quot;);if(a){for(e=&quot;&quot;,r=parseInt(a.substr(0,2),16),n=2;a.length-n;n+=2)i=parseInt(a.substr(n,2),16)^r,e+=String.fromCharCode(i);e=document.createTextNode(e),c.parentNode.replaceChild(e,c)}}}catch(u){}}();/* ]]&gt; */&lt;/script&gt;\nFormat settings, CABAC           : Yes\nFormat settings, ReFrames        : 5 frames\nMuxing mode                      : Container profile=&lt;a class=&quot;__cf_email__&quot; href=&quot;/cdn-cgi/l/email-protection&quot; data-cfemail=&quot;297c474247465e47691a0718&quot;&gt;[email&amp;#160;protected]&lt;/a&gt;&lt;script cf-hash='f9e31' type=&quot;text/javascript&quot;&gt;\n/* &lt;![CDATA[ */!function(){try{var t=&quot;currentScript&quot;in document?document.currentScript:function(){for(var t=document.getElementsByTagName(&quot;script&quot;),e=t.length;e--;)if(t[e].getAttribute(&quot;cf-hash&quot;))return t[e]}();if(t&amp;&amp;t.previousSibling){var e,r,n,i,c=t.previousSibling,a=c.getAttribute(&quot;data-cfemail&quot;);if(a){for(e=&quot;&quot;,r=parseInt(a.substr(0,2),16),n=2;a.length-n;n+=2)i=parseInt(a.substr(n,2),16)^r,e+=String.fromCharCode(i);e=document.createTextNode(e),c.parentNode.replaceChild(e,c)}}}catch(u){}}();/* ]]&gt; */&lt;/script&gt;\nCodec ID                         : V_MPEG4/ISO/AVC\nDuration                         : 2h 6mn\nBit rate                         : 574 Kbps\nWidth                            : 1 280 pixels\nHeight                           : 534 pixels\nDisplay aspect ratio             : 2.35:1\nOriginal display aspect ratio    : 2.35:1\nFrame rate                       : 23.976 fps\nColor space                      : YUV\nChroma subsampling               : 4:2:0\nBit depth                        : 8 bits\nScan type                        : Progressive\nBits/(Pixel*Frame)               : 0.035\nStream size                      : 508 MiB (80%)\nWriting library                  : x264 core 68 r1183M f21daff\n\nAudio\nID                               : 2\nFormat                           : MPEG Audio\nFormat version                   : Version 1\nFormat profile                   : Layer 2\nCodec ID                         : A_MPEG/L2\nCodec ID/Hint                    : MP2\nDuration                         : 2h 6mn\nBit rate mode                    : Constant\nBit rate                         : 128 Kbps\nChannel(s)                       : 2 channels\nSampling rate                    : 44.1 KHz\nVideo delay                      : 2s 0ms\nStream size                      : 115 MiB (18%) \n","torrent":{"xt":"urn:btih:290804982b430f12cccc0cb1a45a652579310cc7","amp;dn":"Iron+Man+%282008%29+Hindi+720p.x264+BRrip%40Mastitorrents","amp;tr":["udp%3A%2F%2Ftracker.openbittorrent.com%3A80","udp%3A%2F%2Fopen.demonii.com%3A1337","udp%3A%2F%2Ftracker.coppersurfer.tk%3A6969","udp%3A%2F%2Fexodus.desync.com%3A6969"],"infoHash":"290804982b430f12cccc0cb1a45a652579310cc7","infoHashBuffer":{"type":"Buffer","data":[41,8,4,152,43,67,15,18,204,204,12,177,164,90,101,37,121,49,12,199]},"announce":[],"urlList":[]}}